<?xml version="1.0" standalone="no"?>
<!DOCTYPE svg PUBLIC "-//W3C//DTD SVG 20010904//EN"
 "http://www.w3.org/TR/2001/REC-SVG-20010904/DTD/svg10.dtd">
<svg version="1.0" xmlns="http://www.w3.org/2000/svg"
 width="220.000000pt" height="220.000000pt" viewBox="0 0 220.000000 220.000000"
 preserveAspectRatio="xMidYMid meet">
<metadata>
Created by potrace 1.16, written by Peter Selinger 2001-2019
</metadata>
<g transform="translate(0.000000,220.000000) scale(0.100000,-0.100000)"
fill="#000000" stroke="none">
<path d="M318 1744 c-53 -28 -88 -138 -88 -273 0 -125 36 -191 105 -191 40 0
69 24 91 76 16 38 19 84 5 84 -11 0 -21 -25 -21 -50 0 -11 -11 -32 -25 -47
l-25 -28 -19 22 c-55 66 -28 337 37 372 31 17 41 14 73 -21 28 -31 29 -31 29
-9 0 12 -13 36 -29 52 -34 33 -87 39 -133 13z"/>
<path d="M583 1629 c-48 -31 -85 -114 -86 -192 -1 -73 20 -120 63 -142 96 -50
180 27 180 165 0 158 -65 228 -157 169z m96 -40 c43 -46 52 -180 17 -234 -35
-53 -110 -17 -123 58 -10 67 36 197 71 197 9 0 24 -9 35 -21z"/>
<path d="M760 1558 c1 -89 14 -222 26 -260 3 -10 14 -18 25 -18 17 0 19 7 19
65 0 78 24 180 50 215 19 25 19 24 17 -111 -2 -118 0 -139 16 -156 11 -12 17
-36 17 -64 0 -46 37 -341 46 -372 5 -16 1 -17 -30 -12 -22 5 -36 3 -36 -3 0
-5 14 -12 30 -16 32 -6 40 -30 14 -40 -20 -8 -138 -8 -158 0 -37 14 -10 44 40
44 13 0 24 5 24 11 0 15 -87 4 -108 -13 -21 -18 -13 -175 12 -212 23 -36 74
-66 111 -66 36 0 88 30 110 63 9 14 28 27 44 29 25 4 30 0 40 -29 13 -35 62
-78 96 -85 15 -3 20 -11 18 -36 -1 -31 -17 -62 -33 -62 -4 0 -12 10 -18 23
-11 22 -11 22 -11 -5 -1 -28 23 -43 52 -33 26 11 41 60 28 96 -10 28 -8 34 14
55 25 23 45 63 45 90 0 25 -16 15 -33 -21 -12 -26 -23 -35 -41 -35 -35 0 -48
30 -47 107 0 90 33 157 77 161 19 2 36 -3 44 -12 17 -22 30 -20 30 4 0 47 -99
69 -149 33 -14 -10 -38 -43 -53 -73 -31 -63 -30 -64 -52 80 -28 185 -29 175
25 198 53 22 96 77 106 135 5 32 3 38 -18 45 -35 13 -74 -4 -113 -49 l-33 -40
-12 46 c-6 25 -18 48 -25 51 -15 6 -13 62 6 149 19 86 72 175 106 175 12 0 13
-9 8 -42 -3 -24 -9 -90 -12 -148 -6 -113 2 -144 30 -121 13 11 16 38 16 150 0
145 -10 184 -46 189 -30 4 -70 -32 -97 -89 l-24 -51 -6 39 c-7 44 -36 76 -64
71 -10 -1 -27 -22 -38 -45 -11 -23 -23 -42 -27 -43 -5 0 -8 18 -8 39 0 51 -15
91 -35 91 -12 0 -15 -16 -15 -92z"/>
<path d="M1573 1462 c-6 -4 -14 -28 -18 -54 l-7 -48 -54 0 c-30 0 -54 -4 -54
-10 0 -5 23 -10 50 -10 l50 0 0 -162 c0 -90 -3 -173 -6 -186 -6 -22 -10 -23
-54 -17 -30 4 -50 3 -54 -4 -4 -7 -1 -8 8 -5 9 3 30 1 48 -5 25 -9 35 -8 48 4
16 15 18 14 25 -12 9 -39 34 -63 63 -63 19 0 23 4 17 18 -27 61 -35 128 -35
274 l0 158 46 0 c27 0 43 4 39 10 -3 6 -24 10 -46 10 l-39 0 0 49 c0 51 -7 65
-27 53z"/>
<path d="M1200 1275 c-12 -32 -13 -156 0 -209 4 -21 16 -46 25 -55 14 -14 18
-14 42 -1 20 11 32 31 45 74 10 33 20 61 21 63 2 2 2 -32 -1 -76 -6 -112 21
-182 55 -138 6 6 11 85 12 175 1 163 1 163 -21 160 -27 -4 -71 -88 -88 -170
-7 -32 -16 -58 -20 -58 -10 0 -20 63 -21 140 -1 75 -10 112 -27 118 -6 2 -16
-8 -22 -23z"/>
<path d="M1906 1273 c-4 -11 -24 -24 -53 -32 -70 -21 -128 -83 -143 -155 -14
-66 1 -109 38 -114 37 -6 70 24 106 96 19 37 35 63 36 57 4 -55 23 -152 35
-176 17 -31 22 -34 44 -20 11 7 10 20 -4 77 -10 38 -21 116 -24 173 -4 66 -10
106 -18 108 -6 2 -14 -4 -17 -14z"/>
<path d="M247 1242 c-15 -16 -17 -46 -17 -210 0 -179 1 -192 19 -202 25 -13
461 -14 461 0 0 5 10 18 22 30 l22 20 -237 0 -237 0 0 160 0 160 260 0 260 0
0 -111 0 -111 30 24 30 23 -2 103 c-3 89 -6 106 -22 118 -16 11 -73 14 -296
14 -256 0 -278 -1 -293 -18z"/>
<path d="M1753 913 c-56 -11 -123 -132 -123 -222 1 -53 33 -117 69 -135 69
-36 124 -11 161 76 19 44 21 63 16 121 -12 125 -49 174 -123 160z m83 -97 c23
-59 22 -160 -3 -194 -47 -63 -123 -15 -123 76 0 58 16 119 42 154 16 24 22 26
43 16 14 -6 31 -29 41 -52z"/>
<path d="M1523 892 c-3 -13 -16 -22 -38 -26 -42 -8 -110 -58 -135 -98 -24 -39
-34 -115 -21 -151 9 -22 17 -27 44 -27 41 0 64 23 104 104 l30 58 11 -83 c12
-85 32 -129 57 -129 24 0 25 16 4 96 -12 47 -21 118 -22 173 -1 68 -6 96 -15
99 -7 2 -16 -5 -19 -16z"/>
<path d="M232 778 c-7 -7 -12 -19 -12 -28 0 -37 18 -40 257 -40 l233 0 0 40 0
40 -233 0 c-168 0 -236 -3 -245 -12z"/>
</g>
</svg>
